<?xml version="1.0" encoding="utf-8"?>
<!-- Generator: Adobe Illustrator 26.3.1, SVG Export Plug-In . SVG Version: 6.00 Build 0)  -->
<svg version="1.1" id="Layer_1" xmlns="http://www.w3.org/2000/svg" xmlns:xlink="http://www.w3.org/1999/xlink" x="0px" y="0px"
	 viewBox="0 0 1323.3 301.1" style="enable-background:new 0 0 1323.3 301.1;" xml:space="preserve">
<style type="text/css">
	.st0{fill:#FF512F;}
	.st1{fill:#FFFFFF;}
</style>
<g>
	<polygon class="st0" points="1163.1,180.4 1116.1,150.4 1106.5,210.6 1096.9,270.9 1096.9,270.9 1153.5,240.6 1210.1,210.3 	"/>
	<polygon class="st1" points="1088.2,0 1088.2,0 1040.3,301.1 1040.3,301.1 1040.3,301.1 1096.9,270.9 1096.9,270.9 1116.1,150.4 
		1125.6,90.2 1266.7,180 1323.3,149.8 	"/>
</g>
<g>
	<path class="st0" d="M166.9,0l-5.5,34.7H48.5l-1.4,8.7H160l-5.5,34.7H41.6l-6.9,43.4H0L19.3,0H166.9z"/>
	<path class="st0" d="M292.3,86.8L306,0h34.7l-19.3,121.6h-86.8c-46.3,0-66.7-17.4-61.2-52.1l11-69.5h34.7l-11,69.5
		c-1.8,11.6,8.8,17.4,32,17.4H292.3z"/>
	<path class="st0" d="M448.3,34.7l-13.8,86.8h-34.7l13.8-86.8h-60.8L358.3,0h156.3l-5.5,34.7H448.3z"/>
	<path class="st0" d="M640,86.8L653.8,0h34.7l-19.3,121.6h-86.8c-46.3,0-66.7-17.4-61.2-52.1l11-69.5h34.7l-11,69.5
		c-1.8,11.6,8.8,17.4,32,17.4H640z"/>
	<path class="st0" d="M706.1,0h86.8c46.3,0,67.2,14.5,62.6,43.4c-3.3,21-17.7,34.4-43,40.2l31.9,37.9h-49.1L766,86.8h-39l-5.5,34.7
		h-34.7L706.1,0z M735.3,34.7l-2.8,17.4h52.1c23.2,0,35.2-2.9,36.1-8.7c0.9-5.8-10.2-8.7-33.4-8.7H735.3z"/>
	<path class="st0" d="M900.9,86.8h112.9l-5.5,34.7H860.7L879.9,0h147.6l-5.5,34.7H909.2l-1.4,8.7H1012l-5.5,34.7H902.3L900.9,86.8z"
		/>
	<path class="st1" d="M399.3,179.6h78.1l-5.5,34.7h-78.1c-23.2,0-35.7,5.8-37.5,17.4l-2.8,17.4c-1.8,11.6,8.8,17.4,32,17.4h78.1
		l-5.5,34.7H380c-46.3,0-66.7-17.4-61.2-52.1l2.8-17.4C327.1,197,353,179.6,399.3,179.6z"/>
	<path class="st1" d="M514.6,275.1l-4.1,26h-34.7l11-69.5c5.5-34.7,31.4-52.1,77.7-52.1h86.8L632,301.1h-34.7l4.1-26H514.6z
		 M520.1,240.4h86.8l4.1-26H559c-23.2,0-35.7,5.8-37.5,17.4L520.1,240.4z"/>
	<path class="st1" d="M729.7,179.6h95.5l-5.5,34.7h-95.5c-17.4,0-26.3,1.4-26.7,4.3c-0.5,2.9,8,4.3,25.4,4.3h34.7
		c40.5,0,58.7,13,54.6,39.1c-4.1,26-26.5,39.1-67,39.1h-95.5l5.5-34.7h95.5c17.4,0,26.3-1.4,26.7-4.3c0.5-2.9-8-4.3-25.4-4.3h-34.7
		c-40.5,0-58.7-13-54.6-39.1C666.8,192.6,689.2,179.6,729.7,179.6z"/>
	<path class="st1" d="M865.1,257.7l-6.9,43.4h-34.7l19.3-121.6h34.7l-6.9,43.4h86.8l6.9-43.4h34.7l-19.3,121.6H945l6.9-43.4H865.1z"
		/>
</g>
</svg>
