<svg id="Layer_1" data-name="Layer 1" xmlns="http://www.w3.org/2000/svg" viewBox="0 0 50 45.09"><defs><style>.cls-1{fill:#fff;}</style></defs><path class="cls-1" d="M40.09,12.07l-2.21,9.77L35.06,10,25.14,6l-2.67,11.8L20.11,4,10.2,0,0,45.09H10.82L14,31.26l2.36,13.83H27.13l2.67-11.8h0l2.82,11.8H43.44l6.56-29ZM10,44.09H1.25L10.92,1.37l8,3.24ZM14.53,28.7l5-22.14L21.9,20.4l-5,22.14Zm11.8,15.39H17.56L25.86,7.4l8,3.25Zm6.79-1.21L30.3,31.08l4.26-18.83,2.82,11.8Zm9.52,1.21H33.87L40.8,13.44l8,3.24Z"/></svg>